<svg width="32" height="24" viewBox="0 0 32 24" fill="none" xmlns="http://www.w3.org/2000/svg">
    <path d="M9.65955 11.6507H21.5158V15.3128C21.5254 15.8339 21.4011 16.3498 21.1532 16.8179C20.9245 17.2463 20.5693 17.6062 20.1287 17.8561C19.6477 18.1126 19.0985 18.2395 18.5434 18.2223H18.3591C17.8017 18.2354 17.2518 18.1014 16.7739 17.836C16.3333 17.5828 15.9783 17.2206 15.7494 16.7904C15.5057 16.3283 15.3835 15.8195 15.3927 15.3055V13.0716H9.65955V11.6507ZM16.7798 13.0716V15.1608C16.7561 15.5944 16.9079 16.0207 17.2058 16.3565C17.3525 16.5061 17.5332 16.6238 17.7351 16.7011C17.9369 16.7783 18.1548 16.8132 18.373 16.8033H18.5157C18.7357 16.8141 18.9557 16.7796 19.1596 16.7024C19.3635 16.6251 19.5462 16.507 19.6947 16.3565C19.9942 16.0214 20.1469 15.5948 20.1227 15.1608V13.0716H16.7798Z" fill="#333333"/>
    <path d="M21.7139 23.9996V22.0694H25.0429C25.4182 22.0694 25.5777 21.8847 25.5777 21.4709V14.1066C25.554 13.5643 25.7367 13.0327 26.0901 12.616C26.2731 12.4234 26.4969 12.2726 26.7456 12.1744C26.9943 12.0761 27.2618 12.0326 27.5294 12.0471H27.5744V11.9677H27.5331C27.2648 11.9816 26.9966 11.937 26.7478 11.8371C26.4989 11.7371 26.2756 11.5843 26.0938 11.3895C25.7396 10.9732 25.5568 10.4414 25.5815 9.89894V2.52905C25.5815 2.1153 25.4164 1.93059 25.0467 1.93059H22.1242V0.000386331H25.6828C25.9537 -0.00490038 26.2228 0.0441205 26.4738 0.144465C26.7248 0.244809 26.9524 0.394377 27.1428 0.584066C27.3369 0.774993 27.4894 1.00286 27.5911 1.25374C27.6927 1.50463 27.7413 1.77327 27.7339 2.04327V9.86753C27.7339 10.6064 28.1093 10.9499 28.9331 10.9499H31.185V13.0501H28.9331C28.1149 13.0501 27.7339 13.3936 27.7339 14.1306V21.9567C27.7413 22.2267 27.6927 22.4954 27.5911 22.7463C27.4894 22.9971 27.3369 23.225 27.1428 23.4159C26.9524 23.6056 26.7248 23.7552 26.4738 23.8555C26.2228 23.9559 25.9537 24.0049 25.6828 23.9996H21.7139Z" fill="#7000FF"/>
    <path d="M9.47107 23.9996V22.0694H6.14201C5.7667 22.0694 5.60719 21.8847 5.60719 21.4709V14.1066C5.63096 13.5643 5.44828 13.0327 5.09488 12.616C4.91179 12.4234 4.68802 12.2726 4.43934 12.1744C4.19067 12.0761 3.92312 12.0326 3.65554 12.0471H3.61051V11.9677H3.65179C3.92016 11.9816 4.18835 11.937 4.43717 11.8371C4.68599 11.7371 4.9093 11.5843 5.09113 11.3895C5.44533 10.9732 5.62812 10.4414 5.60343 9.89894V2.52905C5.60343 2.1153 5.76857 1.93059 6.13826 1.93059H9.06076V0.000386331H5.5021C5.23124 -0.00490038 4.96213 0.0441205 4.71114 0.144465C4.46014 0.244809 4.23251 0.394377 4.04212 0.584066C3.84802 0.774993 3.6955 1.00286 3.59387 1.25374C3.49224 1.50463 3.44362 1.77327 3.451 2.04327V9.86753C3.451 10.6064 3.07568 10.9499 2.25186 10.9499H-3.33786e-05V13.0501H2.25186C3.07005 13.0501 3.451 13.3936 3.451 14.1306V21.9567C3.44362 22.2267 3.49224 22.4954 3.59387 22.7463C3.6955 22.9971 3.84802 23.225 4.04212 23.4159C4.23251 23.6056 4.46014 23.7552 4.71114 23.8555C4.96213 23.9559 5.23124 24.0049 5.5021 23.9996H9.47107Z" fill="#7000FF"/>
    <path fill-rule="evenodd" clip-rule="evenodd" d="M14.9357 7.90367C14.9024 7.77675 14.8521 7.65383 14.7857 7.53783C14.6774 7.34863 14.5285 7.18181 14.3481 7.04757C13.8885 6.72511 13.3216 6.56066 12.745 6.58249C11.8282 6.58332 10.9433 6.89323 10.2561 7.45406C9.59521 7.99763 9.18878 8.75727 9.12268 9.57257H10.4147C10.471 9.21888 10.6424 8.88938 10.9061 8.62775C11.1418 8.39546 11.4479 8.23526 11.7833 8.16751C11.7615 8.27444 11.7501 8.38514 11.7501 8.49852C11.7501 9.40874 12.4879 10.1466 13.3982 10.1466C14.3084 10.1466 15.0463 9.40874 15.0463 8.49852C15.0463 8.28878 15.0071 8.08819 14.9357 7.90367Z" fill="#333333"/>
    <circle cx="19.9584" cy="8.49858" r="1.64811" fill="#333333"/>
</svg>
